<!DOCTYPE svg PUBLIC "-//W3C//DTD SVG 1.1//EN" "http://www.w3.org/Graphics/SVG/1.1/DTD/svg11.dtd">
<!-- Uploaded to: SVG Repo, www.svgrepo.com, Transformed by: SVG Repo Mixer Tools -->
<svg width="64px" height="64px" viewBox="0 0 18.00 18.00" xmlns="http://www.w3.org/2000/svg" mirror-in-rtl="true" fill="#000000" stroke="#000000" stroke-width="0.00018">

<g id="SVGRepo_bgCarrier" stroke-width="0"/>

<g id="SVGRepo_tracerCarrier" stroke-linecap="round" stroke-linejoin="round"/>

<g id="SVGRepo_iconCarrier"> <path fill="#494c4e" d="M17 13a1 1 0 0 1-1 1h-1v1a1 1 0 0 1-2 0v-1h-1a1 1 0 0 1 0-2h1v-1a1 1 0 0 1 2 0v1h1a1 1 0 0 1 1 1z"/> <path fill="#494c4e" d="M13.6 0H2.4A1.417 1.417 0 0 0 1 1.43v15.14A1.417 1.417 0 0 0 2.4 18h11.2a1.355 1.355 0 0 0 .2-.02A4.992 4.992 0 0 1 14 8a5.468 5.468 0 0 1 1 .1V1.43A1.417 1.417 0 0 0 13.6 0zM6 12H4a1 1 0 0 1 0-2h2a1 1 0 0 1 0 2zm3-4H4a1 1 0 0 1 0-2h5a1 1 0 0 1 0 2zm3-4H4.03a1 1 0 0 1 0-2H12a1 1 0 0 1 0 2z"/> </g>

</svg>